<svg width="84" height="16" viewBox="0 0 84 16" fill="none" xmlns="http://www.w3.org/2000/svg">
<g id="ICEBERG">
<path d="M6.11997 0.959988L3.63997 15H0.219971L2.69997 0.959988H6.11997Z" fill="white"/>
<path d="M6.79841 7.95999C7.03841 6.57332 7.55174 5.33999 8.33841 4.25999C9.13841 3.16666 10.1251 2.31999 11.2984 1.71999C12.4717 1.10665 13.7384 0.799988 15.0984 0.799988C16.7651 0.799988 18.1117 1.23999 19.1384 2.11999C20.1784 2.99999 20.7651 4.19999 20.8984 5.71999H17.1384C16.9651 5.14666 16.6451 4.71332 16.1784 4.41999C15.7251 4.11332 15.1651 3.95999 14.4984 3.95999C13.4451 3.95999 12.5317 4.32665 11.7584 5.05999C10.9851 5.77999 10.4917 6.74665 10.2784 7.95999C10.2117 8.33332 10.1784 8.65999 10.1784 8.93999C10.1784 9.87332 10.4384 10.6133 10.9584 11.16C11.4784 11.7067 12.1917 11.98 13.0984 11.98C13.7517 11.98 14.3584 11.8267 14.9184 11.52C15.4917 11.2133 15.9717 10.7733 16.3584 10.2H20.1184C19.4517 11.72 18.4451 12.92 17.0984 13.8C15.7517 14.6667 14.2451 15.1 12.5784 15.1C11.3784 15.1 10.3317 14.8667 9.43841 14.4C8.54507 13.9333 7.85841 13.2733 7.37841 12.42C6.89841 11.5667 6.65841 10.5733 6.65841 9.43999C6.65841 8.93332 6.70507 8.43999 6.79841 7.95999Z" fill="white"/>
<path d="M26.7728 3.65999L26.2728 6.57999H30.8528L30.3928 9.15999H25.8128L25.2528 12.3H30.4328L29.9528 15H21.3528L23.8328 0.959988H32.4328L31.9528 3.65999H26.7728Z" fill="white"/>
<path d="M44.8931 4.59999C44.7464 5.42665 44.4064 6.11332 43.8731 6.65999C43.3398 7.20665 42.6998 7.58665 41.9531 7.79999C42.6198 7.94666 43.1464 8.27332 43.5331 8.77999C43.9198 9.28666 44.1131 9.87999 44.1131 10.56C44.1131 10.7733 44.0931 10.98 44.0531 11.18C43.8531 12.3533 43.2798 13.2867 42.3331 13.98C41.3864 14.66 40.1798 15 38.7131 15H32.1731L34.6531 0.959988H40.9731C42.2398 0.959988 43.2198 1.21999 43.9131 1.73999C44.6064 2.25999 44.9531 2.97999 44.9531 3.89999C44.9531 4.12665 44.9331 4.35999 44.8931 4.59999ZM39.2931 6.65999C39.8664 6.65999 40.3264 6.53332 40.6731 6.27999C41.0198 6.02666 41.2331 5.65999 41.3131 5.17999C41.3264 5.09999 41.3331 4.99332 41.3331 4.85999C41.3331 4.47332 41.2064 4.17999 40.9531 3.97999C40.6998 3.76665 40.3264 3.65999 39.8331 3.65999H37.5931L37.0731 6.65999H39.2931ZM40.6531 10.72C40.6798 10.56 40.6931 10.44 40.6931 10.36C40.6931 9.97332 40.5531 9.67332 40.2731 9.45999C39.9931 9.23332 39.6064 9.11999 39.1131 9.11999H36.6331L36.0731 12.28H38.5931C39.1798 12.28 39.6464 12.1467 39.9931 11.88C40.3398 11.6133 40.5598 11.2267 40.6531 10.72Z" fill="white"/>
<path d="M50.7767 3.65999L50.2767 6.57999H54.8567L54.3967 9.15999H49.8167L49.2567 12.3H54.4367L53.9567 15H45.3567L47.8367 0.959988H56.4367L55.9567 3.65999H50.7767Z" fill="white"/>
<path d="M64.397 0.959988C65.8503 0.959988 66.957 1.29332 67.717 1.95999C68.477 2.61332 68.857 3.46665 68.857 4.51999C68.857 4.82665 68.8303 5.11332 68.777 5.37999C68.617 6.31332 68.2103 7.14666 67.557 7.87999C66.9037 8.61332 66.0303 9.13332 64.937 9.43999L67.197 15H63.337L61.357 9.69999H60.537L59.597 15H56.177L58.657 0.959988H64.397ZM65.277 5.51999C65.3037 5.30665 65.317 5.16666 65.317 5.09999C65.317 4.67332 65.177 4.34665 64.897 4.11999C64.6303 3.87999 64.2303 3.75999 63.697 3.75999H61.577L60.957 7.27999H63.077C63.7037 7.27999 64.197 7.12666 64.557 6.81999C64.9303 6.51332 65.1703 6.07999 65.277 5.51999Z" fill="white"/>
<path d="M69.9039 7.95999C70.1439 6.57332 70.6572 5.33999 71.4439 4.25999C72.2439 3.16666 73.2372 2.31999 74.4239 1.71999C75.6105 1.10665 76.8972 0.799988 78.2839 0.799988C79.9639 0.799988 81.3105 1.20665 82.3239 2.01999C83.3505 2.83332 83.9105 3.95999 84.0039 5.39999H80.2439C80.0705 4.93332 79.7639 4.57999 79.3239 4.33999C78.8972 4.08665 78.3705 3.95999 77.7439 3.95999C76.6372 3.95999 75.6839 4.32665 74.8839 5.05999C74.0972 5.77999 73.5972 6.74665 73.3839 7.95999C73.3172 8.35999 73.2839 8.70666 73.2839 8.99999C73.2839 9.98666 73.5705 10.7467 74.1439 11.28C74.7172 11.8133 75.5305 12.08 76.5839 12.08C77.4372 12.08 78.1905 11.8667 78.8439 11.44C79.4972 11 80.0239 10.38 80.4239 9.57999H76.1039L76.5239 7.07999H83.9639L83.4039 10.26C83.0039 11.1133 82.4305 11.9067 81.6839 12.64C80.9505 13.3733 80.0772 13.9667 79.0639 14.42C78.0505 14.8733 76.9572 15.1 75.7839 15.1C74.5705 15.1 73.5039 14.8667 72.5839 14.4C71.6772 13.92 70.9772 13.2533 70.4839 12.4C70.0039 11.5467 69.7639 10.5533 69.7639 9.41999C69.7639 9.03332 69.8105 8.54665 69.9039 7.95999Z" fill="white"/>
</g>
</svg>
